HIERARCHY
ROOT Hips
{
	OFFSET 52.339500 -7.203064 84.300797
	CHANNELS 6 Xposition Yposition Zposition Xrotation Yrotation Zrotation
	JOINT spine
	{
		OFFSET 0.000000 -0.342408 5.954376
		CHANNELS 3 Xrotation Yrotation Zrotation
		JOINT spine1
		{
			OFFSET 0.000000 -0.000001 8.856018
			CHANNELS 3 Xrotation Yrotation Zrotation
			JOINT spine2
			{
				OFFSET 0.000000 -0.000001 8.485672
				CHANNELS 3 Xrotation Yrotation Zrotation
				JOINT Neck
				{
					OFFSET 0.000000 -1.038703 21.786301
					CHANNELS 3 Xrotation Yrotation Zrotation
					JOINT Head
					{
						OFFSET 0.000000 -0.000001 6.582199
						CHANNELS 3 Xrotation Yrotation Zrotation
						End Site
						{
							OFFSET 0.000000 5.254357 15.932602
						}
					}
				}
				JOINT RightShoulder
				{
					OFFSET -3.573071 0.497524 9.163864
					CHANNELS 3 Xrotation Yrotation Zrotation
					JOINT RightArm
					{
						OFFSET 0.000000 -0.000002 12.019196
						CHANNELS 3 Xrotation Yrotation Zrotation
						JOINT RightArmRoll
						{
							OFFSET 0.000000 -0.000001 6.067551
							CHANNELS 3 Xrotation Yrotation Zrotation
							JOINT RightForeArm
							{
								OFFSET 0.000000 -0.000003 17.672607
								CHANNELS 3 Xrotation Yrotation Zrotation
								JOINT RightForeArmRoll
								{
									OFFSET 0.000000 -0.000001 6.808731
									CHANNELS 3 Xrotation Yrotation Zrotation
									JOINT RightHand
									{
										OFFSET 0.000000 -0.000002 13.663605
										CHANNELS 3 Xrotation Yrotation Zrotation
										End Site
										{
											OFFSET 0.000000 0.000000 0.100006
										}
									}
								}
							}
						}
					}
				}
				JOINT LeftShoulder
				{
					OFFSET 3.573071 0.497524 9.163864
					CHANNELS 3 Xrotation Yrotation Zrotation
					JOINT LeftArm
					{
						OFFSET 0.000000 -0.000002 12.019196
						CHANNELS 3 Xrotation Yrotation Zrotation
						JOINT LeftArmRoll
						{
							OFFSET 0.000000 -0.000001 6.067551
							CHANNELS 3 Xrotation Yrotation Zrotation
							JOINT LeftForeArm
							{
								OFFSET 0.000000 -0.000003 17.672607
								CHANNELS 3 Xrotation Yrotation Zrotation
								JOINT LeftForeArmRoll
								{
									OFFSET 0.000000 -0.000001 6.808716
									CHANNELS 3 Xrotation Yrotation Zrotation
									JOINT LeftHand
									{
										OFFSET 0.000000 -0.000002 13.663605
										CHANNELS 3 Xrotation Yrotation Zrotation
										End Site
										{
											OFFSET 0.000000 0.000000 0.100006
										}
									}
								}
							}
						}
					}
				}
			}
		}
	}
	JOINT RightUpLeg
	{
		OFFSET -5.277740 0.811859 -0.967796
		CHANNELS 3 Xrotation Yrotation Zrotation
		JOINT RightUpLegRoll
		{
			OFFSET 0.000000 -0.000003 16.021400
			CHANNELS 3 Xrotation Yrotation Zrotation
			JOINT RightLeg
			{
				OFFSET 0.000000 0.000003 -19.840103
				CHANNELS 3 Xrotation Yrotation Zrotation
				JOINT RightLegRoll
				{
					OFFSET 0.000000 -0.000003 19.904999
					CHANNELS 3 Xrotation Yrotation Zrotation
					JOINT RightFoot
					{
						OFFSET 0.000000 -0.000003 16.567497
						CHANNELS 3 Xrotation Yrotation Zrotation
						JOINT RightToeBase
						{
							OFFSET 0.000000 -0.000002 13.849602
							CHANNELS 3 Xrotation Yrotation Zrotation
							End Site
							{
								OFFSET 0.005871 0.773116 6.707275
							}
						}
					}
				}
			}
		}
	}
	JOINT LeftUpLeg
	{
		OFFSET 5.277740 0.811859 -0.967796
		CHANNELS 3 Xrotation Yrotation Zrotation
		JOINT LeftUpLegRoll
		{
			OFFSET 0.000000 -0.000003 16.021500
			CHANNELS 3 Xrotation Yrotation Zrotation
			JOINT LeftLeg
			{
				OFFSET 0.000000 -0.000003 19.840004
				CHANNELS 3 Xrotation Yrotation Zrotation
				JOINT LeftLegRoll
				{
					OFFSET 0.000000 -0.000003 20.089005
					CHANNELS 3 Xrotation Yrotation Zrotation
					JOINT LeftFoot
					{
						OFFSET 0.000000 -0.000002 16.383499
						CHANNELS 3 Xrotation Yrotation Zrotation
						JOINT LeftToeBase
						{
							OFFSET 0.000000 -0.000002 13.849594
							CHANNELS 3 Xrotation Yrotation Zrotation
							End Site
							{
								OFFSET -0.026310 0.773116 6.707275
							}
						}
					}
				}
			}
		}
	}
}
MOTION
Frames: 4
Frame Time: 0.041667
52.844398 -4.925126 84.303802 -10.013603 1.249566 -4.252310 -0.143306 -0.410372 0.082443 3.716903 -0.843920 0.175938 5.362059 -0.841707 0.185911 22.991677 6.586905 -0.986235 10.635380 -4.043622 -0.484487 5.476578 -72.009032 4.530743 -40.708706 -112.564707 -45.811629 0.000001 -0.000003 0.000001 -0.018529 3.634269 -1.990894 0.000004 -0.000007 -3.011589 -5.000160 -7.999915 -0.000004 -6.011425 67.308769 7.715552 -36.703712 120.626291 47.527171 0.000002 0.000001 0.000006 -0.025012 -3.637869 1.990814 -0.000003 -0.000015 3.011609 -5.000137 7.999925 -0.000019 3.449971 -178.938921 3.948985 -179.999991 0.000006 -1.180005 173.020440 -3.208099 -0.450528 0.000002 0.000000 0.072878 68.261628 6.895140 2.173093 25.456959 -7.355616 -0.000000 3.927325 178.081514 -1.351683 -0.000004 -0.000004 -1.203960 -11.903894 2.400007 0.564203 -0.000006 -0.000006 -0.201078 71.013265 -6.833296 -2.144808 25.456950 7.355614 -0.000000 
52.828300 -4.945045 84.307800 -10.015809 1.250484 -4.258729 -0.143296 -0.410392 0.082442 3.716930 -0.842129 0.175953 5.362085 -0.839920 0.185917 22.976051 6.578562 -0.983108 10.627522 -4.032953 -0.484418 5.543247 -72.021702 4.601812 -40.715212 -112.517210 -45.781412 0.000000 -0.000003 0.000002 -0.018528 3.634269 -1.990895 0.000002 -0.000008 -3.011589 -5.000161 -7.999916 -0.000005 -6.041389 67.294398 7.748278 -36.690297 120.603792 47.498594 0.000002 0.000001 0.000008 -0.025011 -3.637871 1.990811 -0.000003 -0.000015 3.011610 -5.000138 7.999925 -0.000017 3.453983 -178.937924 3.950200 -179.999991 0.000005 -1.180006 173.019757 -3.208095 -0.450568 0.000002 -0.000000 0.072879 68.262263 6.895152 2.173055 25.456957 -7.355616 0.000001 3.936862 178.080531 -1.354001 -0.000005 -0.000004 -1.203960 -11.896508 2.402382 0.564200 -0.000006 -0.000006 -0.201078 71.019665 -6.833287 -2.144814 25.456950 7.355613 0.000000 
52.841202 -4.938533 84.305801 -10.018414 1.251380 -4.265530 -0.143187 -0.410375 0.082442 3.717161 -0.840155 0.175972 5.362314 -0.837950 0.185927 22.960267 6.569070 -0.979745 10.619541 -4.021025 -0.484318 5.612919 -72.035061 4.676062 -40.723958 -112.469146 -45.753446 -0.000001 -0.000003 0.000001 -0.018531 3.634269 -1.990895 0.000002 -0.000008 -3.011589 -5.000161 -7.999915 -0.000003 -6.071679 67.278798 7.781293 -36.675677 120.582045 47.469770 0.000003 0.000001 0.000007 -0.025011 -3.637869 1.990813 0.000000 -0.000015 3.011609 -5.000140 7.999926 -0.000021 3.458423 -178.936941 3.951581 -179.999991 0.000005 -1.180005 173.018964 -3.209080 -0.450733 0.000002 -0.000001 0.072878 68.262891 6.895164 2.173015 25.456959 -7.355615 0.000001 3.947189 178.079561 -1.356146 -0.000005 -0.000004 -1.203970 -11.888720 2.404604 0.564166 -0.000006 -0.000006 -0.201078 71.026379 -6.833308 -2.144806 25.456950 7.355613 -0.000000 
52.839699 -4.942615 84.309502 -10.021417 1.252264 -4.272589 -0.143005 -0.410332 0.082442 3.717527 -0.838053 0.175992 5.362691 -0.835852 0.185938 22.944443 6.558763 -0.976221 10.611454 -4.008225 -0.484188 5.684658 -72.048749 4.752503 -40.731587 -112.421956 -45.724148 0.000000 -0.000003 0.000001 -0.018526 3.634269 -1.990896 0.000001 -0.000008 -3.011590 -5.000162 -7.999916 -0.000004 -6.102240 67.262474 7.814561 -36.659876 120.561049 47.440414 0.000005 0.000001 0.000007 -0.025012 -3.637869 1.990810 -0.000003 -0.000014 3.011610 -5.000138 7.999926 -0.000016 3.463156 -178.935943 3.953099 -179.999991 0.000005 -1.180005 173.018104 -3.209073 -0.450782 0.000002 -0.000000 0.072878 68.263520 6.895138 2.173072 25.456957 -7.355617 0.000000 3.958078 178.078591 -1.358160 -0.000005 -0.000004 -1.203970 -11.880632 2.406730 0.564111 -0.000006 -0.000006 -0.201078 71.033407 -6.833296 -2.144773 25.456953 7.355613 -0.000001 
